# xmcd
# 
# Track frame offsets:
#     182
#     11422
#     21857
#     33562
#     44020
#     56535
#     67382
#     80805
#     92005
#     105815
#     116802
#     128382
#     140737
#     151197
#     160290
#     175720
# 
# Disc length: 2502
# 
# Revision: 5
# Processed by: cddbd v1.5.2PL0 Copyright (c) Steve Scherf et al.
# Submitted via: fre:ac v1.0.31
# 
DISCID=d209c410
DTITLE=Eric Clapton - The Blues Collection (Eric Clapton And The Yardbirds)
DYEAR=1995
DGENRE=Blues/Rock
TTITLE0=For your love
TTITLE1=Putty in your hands
TTITLE2=Got to hurry
TTITLE3=I wish you would
TTITLE4=Good morning little schoolgirl
TTITLE5=Evil hearted you
TTITLE6=Still I'm sad
TTITLE7=Heart full of soul
TTITLE8=Jeff's blues
TTITLE9=Shapes of things
TTITLE10=Steeled blues
TTITLE11=Stroll on
TTITLE12=A certain girl
TTITLE13=I ain't got you
TTITLE14=Train kept a rolling
TTITLE15=I'm a man
EXTD=YEAR: 1995
EXTT0=
EXTT1=
EXTT2=
EXTT3=
EXTT4=
EXTT5=
EXTT6=
EXTT7=
EXTT8=
EXTT9=
EXTT10=
EXTT11=
EXTT12=
EXTT13=
EXTT14=
EXTT15=
PLAYORDER=
